<?xml version="1.0" encoding="iso-8859-1"?>
<!-- Generator: Adobe Illustrator 19.0.0, SVG Export Plug-In . SVG Version: 6.00 Build 0)  -->
<svg version="1.1" id="Capa_1" xmlns="http://www.w3.org/2000/svg" xmlns:xlink="http://www.w3.org/1999/xlink" x="0px" y="0px"
	 viewBox="0 0 512 512" style="enable-background:new 0 0 512 512;" xml:space="preserve">
<rect x="256" style="fill:#FFDB2D;" width="101.63" height="83.33"/>
<polygon style="fill:#FF4F19;" points="256,40.667 271,0 357.629,0 357.629,40.667 "/>
<rect x="241" style="fill:#57575A;" width="30" height="138.67"/>
<rect x="29.583" y="123.67" style="fill:#AEADB3;" width="452.83" height="365"/>
<rect x="256" y="123.67" style="fill:#8F8E92;" width="226.42" height="365"/>
<rect x="61.58" y="298.67" style="fill:#FFFFFF;" width="70.75" height="190"/>
<rect x="96.96" y="298.67" style="fill:#DFDEE0;" width="35.37" height="190"/>
<rect x="379.67" y="298.67" style="fill:#FFFFFF;" width="70.75" height="190"/>
<rect x="415.04" y="298.67" style="fill:#DFDEE0;" width="35.37" height="190"/>
<g>
	<rect x="102.33" y="197.2" style="fill:#FFFFFF;" width="30" height="42.667"/>
	<rect x="194.78" y="197.2" style="fill:#FFFFFF;" width="30" height="42.667"/>
</g>
<g>
	<rect x="287.22" y="197.2" style="fill:#DFDEE0;" width="30" height="42.667"/>
	<rect x="379.67" y="197.2" style="fill:#DFDEE0;" width="30" height="42.667"/>
	<rect y="283.67" style="fill:#DFDEE0;" width="512" height="30"/>
</g>
<rect x="256" y="283.67" style="fill:#BEBDC2;" width="256" height="30"/>
<rect y="123.67" style="fill:#DFDEE0;" width="512" height="30"/>
<rect x="256" y="123.67" style="fill:#BEBDC2;" width="256" height="30"/>
<path style="fill:#8F8E92;" d="M298.667,488.667v-83.333c0-23.564-19.103-42.667-42.667-42.667s-42.667,19.103-42.667,42.667v83.333
	H298.667z"/>
<path style="fill:#57575A;" d="M298.667,488.667v-83.333c0-23.564-19.103-42.667-42.667-42.667v126H298.667z"/>
<path style="fill:#FFFFFF;" d="M228.333,488.667v-83.333c0-15.256,12.411-27.667,27.666-27.667
	c15.256,0,27.667,12.411,27.667,27.667v83.333h30v-83.333c0-31.798-25.869-57.667-57.667-57.667
	c-31.797,0-57.666,25.869-57.666,57.667v83.333H228.333z"/>
<g>
	<path style="fill:#DFDEE0;" d="M283.667,405.334v83.333h30v-83.333c0-31.798-25.869-57.667-57.667-57.667v30
		C271.255,377.667,283.667,390.078,283.667,405.334z"/>
	<rect y="482" style="fill:#DFDEE0;" width="512" height="30"/>
</g>
<rect x="256" y="482" style="fill:#BEBDC2;" width="256" height="30"/>
<g>
</g>
<g>
</g>
<g>
</g>
<g>
</g>
<g>
</g>
<g>
</g>
<g>
</g>
<g>
</g>
<g>
</g>
<g>
</g>
<g>
</g>
<g>
</g>
<g>
</g>
<g>
</g>
<g>
</g>
</svg>
